<svg id="Capa_1" enable-background="new 0 0 512 512" height="512" viewBox="0 0 512 512" width="512" xmlns="http://www.w3.org/2000/svg"><g><g><path d="m379.774 86.442h58.834c4.814 0 8.716 3.902 8.716 8.716v245.941h-76.266v-245.941c0-4.814 3.902-8.716 8.716-8.716z" fill="#037e73"/><path d="m84.807 458.97c-11.021 0-19.955-8.934-19.955-19.955v-33.96h39.91v33.96c0 11.021-8.934 19.955-19.955 19.955z" fill="#7c4b37"/><path d="m428.512 458.97c-11.021 0-19.955-8.934-19.955-19.955v-33.96h39.91v33.96c0 11.021-8.934 19.955-19.955 19.955z" fill="#7c4b37"/><path d="m294.792 341.098h-76.266v-279.352c0-4.814 3.902-8.716 8.716-8.716h58.834c4.814 0 8.716 3.902 8.716 8.716z" fill="#e53950"/><path d="m218.527 341.098h-76.266v-279.352c0-4.814 3.902-8.716 8.716-8.716h58.834c4.814 0 8.716 3.902 8.716 8.716z" fill="#0078c8"/><path d="m142.261 109.085h76.266v37.277h-76.266z" fill="#7bacdf"/><path d="m142.261 341.098h-76.266v-279.352c0-4.814 3.902-8.716 8.716-8.716h58.834c4.814 0 8.716 3.902 8.716 8.716z" fill="#fec165"/><path d="m303.508 86.442h58.834c4.814 0 8.716 3.902 8.716 8.716v245.941h-76.266v-245.941c0-4.814 3.903-8.716 8.716-8.716z" fill="#0078c8"/><path d="m495.5 412.319h-479c-4.971 0-9-4.029-9-9v-53.221c0-4.971 4.029-9 9-9h479c4.971 0 9 4.029 9 9v53.221c0 4.971-4.029 9-9 9z" fill="#aa6a51"/><path d="m495.5 341.098h-39.685c4.971 0 9 4.03 9 9v53.221c0 4.971-4.029 9-9 9h39.685c4.971 0 9-4.029 9-9v-53.221c0-4.97-4.029-9-9-9z" fill="#935b44"/><path d="m133.545 53.03h-34.016c4.814 0 8.716 3.902 8.716 8.716v279.352h34.016v-279.352c0-4.814-3.902-8.716-8.716-8.716z" fill="#fdb441"/><path d="m362.342 86.442h-34.016c4.814 0 8.716 3.902 8.716 8.716v245.94h34.016v-245.94c0-4.814-3.902-8.716-8.716-8.716z" fill="#0268b4"/><path d="m438.608 86.442h-34.016c4.814 0 8.716 3.902 8.716 8.716v245.94h34.016v-245.94c0-4.814-3.903-8.716-8.716-8.716z" fill="#006e66"/><path d="m286.076 53.03h-34.016c4.814 0 8.716 3.902 8.716 8.716v279.352h34.016v-279.352c0-4.814-3.902-8.716-8.716-8.716z" fill="#ca2e43"/><path d="m218.527 109.085h76.266v37.277h-76.266z" fill="#fee8c7"/><path d="m260.777 109.085h34.016v37.277h-34.016z" fill="#fedba6"/><path d="m294.792 258.592h76.266v32.954h-76.266z" fill="#7bacdf" transform="matrix(-1 0 0 -1 665.851 550.137)"/><path d="m337.042 258.592h34.016v32.953h-34.016z" fill="#5f99d7"/><path d="m371.058 258.592h76.266v32.954h-76.266z" fill="#0ab69f" transform="matrix(-1 0 0 -1 818.382 550.137)"/><path d="m413.308 258.592h34.016v32.953h-34.016z" fill="#01998d"/><path d="m209.811 53.03h-34.016c4.814 0 8.716 3.902 8.716 8.716v279.352h34.016v-279.352c0-4.814-3.903-8.716-8.716-8.716z" fill="#0268b4"/><path d="m184.511 109.085h34.016v37.277h-34.016z" fill="#5f99d7"/><path d="m65.995 109.085h76.266v37.277h-76.266z" fill="#fee8c7"/><path d="m108.245 109.085h34.016v37.277h-34.016z" fill="#fedba6"/></g><path d="m495.5 333.599h-40.676c0-4.58 0-234.71 0-238.44 0-8.942-7.274-16.217-16.217-16.217h-58.833c-3.209 0-6.196.949-8.717 2.564-2.52-1.615-5.507-2.564-8.716-2.564h-58.833c-.411 0-.814.031-1.217.062v-17.258c0-8.941-7.274-16.216-16.216-16.216h-58.833c-3.209 0-6.195.949-8.716 2.564-2.521-1.615-5.507-2.564-8.716-2.564h-58.833c-3.209 0-6.196.949-8.716 2.564-2.52-1.615-5.507-2.564-8.716-2.564h-58.834c-8.942 0-16.216 7.274-16.216 16.216v156.618c0 4.143 3.358 7.5 7.5 7.5s7.5-3.357 7.5-7.5v-64.502h61.266v179.736h-61.266v-80.234c0-4.143-3.358-7.5-7.5-7.5s-7.5 3.357-7.5 7.5v80.234h-41.995c-9.098 0-16.5 7.401-16.5 16.5v53.221c0 9.099 7.402 16.5 16.5 16.5h40.853v19.196c0 15.139 12.316 27.454 27.455 27.454s27.455-12.315 27.455-27.454v-19.196h218.237c4.143 0 7.5-3.357 7.5-7.5s-3.357-7.5-7.5-7.5c-2.635 0-308.353 0-314 0-.827 0-1.5-.673-1.5-1.5v-53.221c0-.827.673-1.5 1.5-1.5h479c.827 0 1.5.673 1.5 1.5v53.221c0 .827-.673 1.5-1.5 1.5-4.684 0-125.212 0-130 0-4.143 0-7.5 3.357-7.5 7.5s3.357 7.5 7.5 7.5h35.557v19.196c0 15.139 12.316 27.454 27.455 27.454s27.455-12.315 27.455-27.454v-19.196h39.533c9.099 0 16.5-7.401 16.5-16.5v-53.221c0-9.098-7.401-16.499-16.5-16.499zm-398.238 86.22v19.196c0 6.867-5.587 12.454-12.455 12.454s-12.455-5.587-12.455-12.454v-19.196zm52.499-303.234h61.266v22.277h-61.266zm76.266 0h61.265v22.277h-61.265zm76.265 149.507h61.266v17.953h-61.266zm76.266 0h61.267v17.953h-61.267zm1.216-172.151h58.833c.671 0 1.217.546 1.217 1.217v155.934h-61.267v-155.934c.001-.671.547-1.217 1.217-1.217zm-76.265 0h58.833c.67 0 1.216.546 1.216 1.217v155.934h-61.266c0-7.341 0-150.19 0-155.934 0-.671.546-1.217 1.217-1.217zm-76.266-33.411h58.833c.67 0 1.216.545 1.216 1.216v33.412 6.427h-61.265v-39.839c0-.671.545-1.216 1.216-1.216zm-76.266 0h58.833c.671 0 1.216.545 1.216 1.216v39.839h-61.266v-39.839c.001-.671.546-1.216 1.217-1.216zm-76.266 0h58.833c.67 0 1.216.545 1.216 1.216v39.839h-61.265v-39.839c0-.671.546-1.216 1.216-1.216zm-1.216 56.055h61.266v22.277h-61.266zm76.266 37.277h61.266v179.736h-61.266zm76.266 0h61.265v179.736h-61.265zm76.265 145.183h61.266v34.554h-61.266zm76.266 34.554v-34.554h61.267v34.554zm62.409 105.417c0 6.867-5.587 12.454-12.455 12.454s-12.455-5.587-12.455-12.454v-19.196h24.91z"/></g></svg>